<mxfile host="app.diagrams.net" modified="2023-06-01T10:57:59.469Z" agent="Mozilla/5.0 (Windows NT 10.0; Win64; x64) AppleWebKit/537.36 (KHTML, like Gecko) Chrome/113.0.0.0 Safari/537.36" etag="qVoW9gmOmI-iF-6hnOKb" version="21.3.5" type="github">
  <diagram name="Page-1" id="lQx7DxtHt2KXUCDhVXnp">
    <mxGraphModel dx="1037" dy="1654" grid="1" gridSize="10" guides="1" tooltips="1" connect="1" arrows="1" fold="1" page="1" pageScale="1" pageWidth="1169" pageHeight="827" math="0" shadow="0">
      <root>
        <mxCell id="0" />
        <mxCell id="1" parent="0" />
        <mxCell id="S16dvHZVeuOPmKrjyvKW-20" value="" style="edgeStyle=orthogonalEdgeStyle;rounded=0;orthogonalLoop=1;jettySize=auto;html=1;" edge="1" parent="1" source="S16dvHZVeuOPmKrjyvKW-1" target="S16dvHZVeuOPmKrjyvKW-2">
          <mxGeometry relative="1" as="geometry" />
        </mxCell>
        <mxCell id="S16dvHZVeuOPmKrjyvKW-1" value="Start" style="ellipse;whiteSpace=wrap;html=1;strokeColor=#FF1414;" vertex="1" parent="1">
          <mxGeometry x="200" y="-20" width="120" height="80" as="geometry" />
        </mxCell>
        <mxCell id="S16dvHZVeuOPmKrjyvKW-16" value="" style="edgeStyle=orthogonalEdgeStyle;rounded=0;orthogonalLoop=1;jettySize=auto;html=1;" edge="1" parent="1" source="S16dvHZVeuOPmKrjyvKW-2" target="S16dvHZVeuOPmKrjyvKW-3">
          <mxGeometry relative="1" as="geometry" />
        </mxCell>
        <mxCell id="S16dvHZVeuOPmKrjyvKW-2" value="array" style="shape=parallelogram;perimeter=parallelogramPerimeter;whiteSpace=wrap;html=1;fixedSize=1;" vertex="1" parent="1">
          <mxGeometry x="200" y="100" width="120" height="60" as="geometry" />
        </mxCell>
        <mxCell id="S16dvHZVeuOPmKrjyvKW-17" value="" style="edgeStyle=orthogonalEdgeStyle;rounded=0;orthogonalLoop=1;jettySize=auto;html=1;" edge="1" parent="1" source="S16dvHZVeuOPmKrjyvKW-3" target="S16dvHZVeuOPmKrjyvKW-4">
          <mxGeometry relative="1" as="geometry" />
        </mxCell>
        <mxCell id="S16dvHZVeuOPmKrjyvKW-3" value="sum = 0&lt;br&gt;index = 0&lt;br&gt;lenght = array.lenght" style="rounded=0;whiteSpace=wrap;html=1;" vertex="1" parent="1">
          <mxGeometry x="200" y="240" width="120" height="60" as="geometry" />
        </mxCell>
        <mxCell id="S16dvHZVeuOPmKrjyvKW-11" value="no" style="edgeStyle=orthogonalEdgeStyle;rounded=0;orthogonalLoop=1;jettySize=auto;html=1;" edge="1" parent="1" source="S16dvHZVeuOPmKrjyvKW-4" target="S16dvHZVeuOPmKrjyvKW-5">
          <mxGeometry relative="1" as="geometry" />
        </mxCell>
        <mxCell id="S16dvHZVeuOPmKrjyvKW-12" value="yes" style="edgeStyle=orthogonalEdgeStyle;rounded=0;orthogonalLoop=1;jettySize=auto;html=1;" edge="1" parent="1" source="S16dvHZVeuOPmKrjyvKW-4" target="S16dvHZVeuOPmKrjyvKW-6">
          <mxGeometry relative="1" as="geometry" />
        </mxCell>
        <mxCell id="S16dvHZVeuOPmKrjyvKW-4" value="index &amp;lt; lenght" style="rhombus;whiteSpace=wrap;html=1;" vertex="1" parent="1">
          <mxGeometry x="205" y="386" width="110" height="110" as="geometry" />
        </mxCell>
        <mxCell id="S16dvHZVeuOPmKrjyvKW-19" value="" style="edgeStyle=orthogonalEdgeStyle;rounded=0;orthogonalLoop=1;jettySize=auto;html=1;" edge="1" parent="1" source="S16dvHZVeuOPmKrjyvKW-5" target="S16dvHZVeuOPmKrjyvKW-18">
          <mxGeometry relative="1" as="geometry" />
        </mxCell>
        <mxCell id="S16dvHZVeuOPmKrjyvKW-5" value="sum" style="shape=document;whiteSpace=wrap;html=1;boundedLbl=1;" vertex="1" parent="1">
          <mxGeometry x="410" y="401" width="120" height="80" as="geometry" />
        </mxCell>
        <mxCell id="S16dvHZVeuOPmKrjyvKW-13" value="no" style="edgeStyle=orthogonalEdgeStyle;rounded=0;orthogonalLoop=1;jettySize=auto;html=1;" edge="1" parent="1" source="S16dvHZVeuOPmKrjyvKW-6" target="S16dvHZVeuOPmKrjyvKW-7">
          <mxGeometry relative="1" as="geometry" />
        </mxCell>
        <mxCell id="S16dvHZVeuOPmKrjyvKW-15" value="yes" style="edgeStyle=orthogonalEdgeStyle;rounded=0;orthogonalLoop=1;jettySize=auto;html=1;" edge="1" parent="1" source="S16dvHZVeuOPmKrjyvKW-6" target="S16dvHZVeuOPmKrjyvKW-8">
          <mxGeometry relative="1" as="geometry" />
        </mxCell>
        <mxCell id="S16dvHZVeuOPmKrjyvKW-6" value="index % 2 == 1" style="rhombus;whiteSpace=wrap;html=1;" vertex="1" parent="1">
          <mxGeometry x="195" y="556" width="130" height="120" as="geometry" />
        </mxCell>
        <mxCell id="S16dvHZVeuOPmKrjyvKW-14" style="edgeStyle=orthogonalEdgeStyle;rounded=0;orthogonalLoop=1;jettySize=auto;html=1;entryX=0;entryY=0.5;entryDx=0;entryDy=0;" edge="1" parent="1" source="S16dvHZVeuOPmKrjyvKW-7" target="S16dvHZVeuOPmKrjyvKW-4">
          <mxGeometry relative="1" as="geometry">
            <Array as="points">
              <mxPoint x="100" y="441" />
            </Array>
          </mxGeometry>
        </mxCell>
        <mxCell id="S16dvHZVeuOPmKrjyvKW-7" value="index = index + 1" style="rounded=0;whiteSpace=wrap;html=1;" vertex="1" parent="1">
          <mxGeometry x="40" y="586" width="120" height="60" as="geometry" />
        </mxCell>
        <mxCell id="S16dvHZVeuOPmKrjyvKW-10" style="edgeStyle=orthogonalEdgeStyle;rounded=0;orthogonalLoop=1;jettySize=auto;html=1;entryX=0.5;entryY=1;entryDx=0;entryDy=0;" edge="1" parent="1" source="S16dvHZVeuOPmKrjyvKW-8" target="S16dvHZVeuOPmKrjyvKW-7">
          <mxGeometry relative="1" as="geometry">
            <Array as="points">
              <mxPoint x="100" y="786" />
            </Array>
          </mxGeometry>
        </mxCell>
        <mxCell id="S16dvHZVeuOPmKrjyvKW-8" value="sum = sum + array[index]" style="rounded=0;whiteSpace=wrap;html=1;" vertex="1" parent="1">
          <mxGeometry x="155" y="756" width="210" height="60" as="geometry" />
        </mxCell>
        <mxCell id="S16dvHZVeuOPmKrjyvKW-18" value="Finish" style="ellipse;whiteSpace=wrap;html=1;fillColor=#dae8fc;strokeColor=#6c8ebf;" vertex="1" parent="1">
          <mxGeometry x="410" y="230" width="120" height="80" as="geometry" />
        </mxCell>
        <mxCell id="S16dvHZVeuOPmKrjyvKW-21" value="&lt;div&gt;Найти сумму всех элементов массива&amp;nbsp;&lt;/div&gt;&lt;div&gt;с нечетными индексами.&lt;/div&gt;" style="whiteSpace=wrap;html=1;" vertex="1" parent="1">
          <mxGeometry x="410" y="10" width="180" height="90" as="geometry" />
        </mxCell>
      </root>
    </mxGraphModel>
  </diagram>
</mxfile>
